# xmcd
#
# Track frame offsets: 
#        225
#        19207
#        34750
#        51990
#        65587
#        93259
#        104323
#        123784
#        149215
#        167848
#        186085
#        199630
#
# Disc length: 2995 seconds
#
# Revision: 0
# Processed by: cddbd v1.5.2PL0 Copyright (c) Steve Scherf et al.
# Submitted via: ExactAudioCopy v0.99pb3
#
DISCID=ac0bb00c
DTITLE=Hollywood All Stars - Hard Hitting Blues From Memphis
DYEAR=2000
DGENRE=Blues
TTITLE0=Making A Change
TTITLE1=I'm Tore Down
TTITLE2=What Did I Do
TTITLE3=Mannish Boy
TTITLE4=Big Leg Woamn
TTITLE5=Going 'Cross The Bottom
TTITLE6=It's Too Bad
TTITLE7=Better to Take Than To Give
TTITLE8=Ben Wilson Shuffle
TTITLE9=Let Me Play With Your Poodle
TTITLE10=That's My Woman
TTITLE11=Gambler's Blues
EXTD=
EXTT0=
EXTT1=
EXTT2=
EXTT3=
EXTT4=
EXTT5=
EXTT6=
EXTT7=
EXTT8=
EXTT9=
EXTT10=
EXTT11=
PLAYORDER=
